<svg width="20" height="20" viewBox="0 0 20 20" fill="none" xmlns="http://www.w3.org/2000/svg">
<g id="ic:outline-watch-later">
<path id="Vector" d="M11.1666 5.33333C7.95825 5.33333 5.33325 7.95833 5.33325 11.1667C5.33325 14.375 7.95825 17 11.1666 17C14.3749 17 16.9999 14.375 16.9999 11.1667C16.9999 7.95833 14.3749 5.33333 11.1666 5.33333ZM11.1666 15.6058C8.59409 15.6058 6.73325 13.7392 6.73325 11.1667C6.73325 8.59416 8.59409 6.73333 11.1666 6.73333C13.7391 6.73333 15.7239 8.59416 15.7239 11.1667C15.7239 13.7392 13.7391 15.6058 11.1666 15.6058ZM11.4583 8.24999H10.5833V11.75L13.6166 13.6167L14.0833 12.8583L11.4583 11.2833V8.24999Z" fill="black"/>
</g>
</svg>
